<svg width="63" height="62" viewBox="0 0 63 62" fill="none" xmlns="http://www.w3.org/2000/svg">
<g clip-path="url(#clip0_26_258)">
<path d="M18.9 26.6082C18.9135 27.1767 19.0017 27.7411 19.1625 28.2874L19.6875 29.579C19.735 29.6314 19.7711 29.6928 19.7937 29.7595C19.8163 29.8261 19.8248 29.8965 19.8188 29.9665C19.8188 30.2249 19.6875 30.354 19.5563 30.6124L18.2438 31.3874H17.85C17.7277 31.3976 17.6047 31.3796 17.4908 31.3347C17.3768 31.2899 17.2751 31.2194 17.1938 31.129C16.904 30.8843 16.6788 30.574 16.5375 30.2248C16.2896 29.8992 16.0701 29.5535 15.8813 29.1915C15.2023 30.0164 14.341 30.6778 13.363 31.1255C12.3849 31.5732 11.316 31.7953 10.2375 31.7749C9.5389 31.7993 8.84236 31.6863 8.18875 31.4423C7.53514 31.1983 6.93762 30.8283 6.43125 30.354C5.95314 29.8796 5.57848 29.3142 5.33023 28.6923C5.08197 28.0704 4.96535 27.4052 4.9875 26.7374C4.98622 25.9984 5.15017 25.2681 5.46772 24.5984C5.78528 23.9288 6.24866 23.3361 6.825 22.8624C8.12999 21.8552 9.76295 21.3501 11.4188 21.4415H13.5188L15.75 21.829V20.6665C15.8098 19.6005 15.4843 18.5481 14.8313 17.6957C13.9149 17.0533 12.8048 16.7346 11.6813 16.7915L9.58125 17.0499L7.48125 17.6957L6.825 17.954H6.5625C6.3 17.954 6.16875 17.6957 6.16875 17.3082V16.404C6.12844 16.1802 6.17531 15.9496 6.30001 15.7582L6.825 15.3707C7.57599 15.015 8.36984 14.7546 9.1875 14.5957C10.1728 14.3403 11.1873 14.2101 12.2063 14.2082C14.0513 14.0598 15.8838 14.6147 17.325 15.7582C17.8885 16.3913 18.318 17.1286 18.5885 17.927C18.8589 18.7255 18.9648 19.569 18.9 20.4082V26.6082ZM11.1563 29.4499L13.125 29.0624C13.8102 28.7994 14.4349 28.4041 14.9625 27.8999C15.259 27.512 15.4814 27.0743 15.6188 26.6082C15.6188 26.2207 15.75 25.704 15.75 25.0582V24.2832L14.0438 23.8957H12.2063C11.1818 23.8192 10.1619 24.0929 9.31875 24.6707C9.00643 24.9442 8.76141 25.284 8.60223 25.6644C8.44306 26.0448 8.37391 26.4559 8.4 26.8665C8.35391 27.5718 8.58937 28.267 9.05625 28.804C9.34247 29.0478 9.67664 29.231 10.0379 29.3421C10.3992 29.4532 10.7799 29.4899 11.1563 29.4499ZM26.5125 31.5165C26.3902 31.5268 26.2672 31.5087 26.1533 31.4639C26.0393 31.419 25.9376 31.3486 25.8563 31.2582C25.7192 31.1716 25.6018 31.0581 25.5114 30.9247C25.4211 30.7913 25.3597 30.641 25.3313 30.4832L20.8688 15.8874C20.7806 15.6382 20.7363 15.3761 20.7375 15.1124C20.7375 15.0615 20.7477 15.0111 20.7675 14.9641C20.7873 14.917 20.8163 14.8743 20.8528 14.8383C20.8894 14.8024 20.9328 14.7738 20.9806 14.7543C21.0283 14.7349 21.0795 14.7249 21.1313 14.7249H23.7563C23.9417 14.9529 24.0759 15.217 24.15 15.4999L27.4313 28.029L30.45 15.4999C30.4379 15.3599 30.455 15.219 30.5001 15.0857C30.5453 14.9525 30.6175 14.8297 30.7125 14.7249H33.8625L34.2563 15.4999L37.275 28.1582L40.5563 15.4999L40.95 14.7249H43.4438C43.8375 14.7249 43.9688 14.854 43.9688 15.1124V15.4999C43.9688 15.629 43.8375 15.7582 43.8375 15.8874L39.1125 30.6124C39.1081 30.7441 39.0696 30.8725 39.0007 30.9855C38.9318 31.0985 38.8348 31.1924 38.7188 31.2582L38.0625 31.5165H36.3563C36.2133 31.5386 36.067 31.5271 35.9293 31.483C35.7917 31.4388 35.6666 31.3633 35.5643 31.2626C35.4619 31.1619 35.3852 31.0388 35.3403 30.9033C35.2955 30.7679 35.2838 30.6239 35.3063 30.4832L32.2875 18.3415L29.2688 30.4832C29.2808 30.6231 29.2638 30.764 29.2186 30.8973C29.1735 31.0305 29.1012 31.1533 29.0063 31.2582L28.2188 31.5165H26.5125ZM51.1875 32.0332C50.2117 32.0319 49.2405 31.9015 48.3 31.6457L46.0688 30.8707C45.8028 30.7663 45.5744 30.5865 45.4125 30.354C45.4125 30.2248 45.2813 29.9665 45.2813 29.8374V28.804C45.2813 28.667 45.3366 28.5356 45.435 28.4387C45.5335 28.3418 45.667 28.2874 45.8063 28.2874H46.0688L46.5938 28.5457L48.6938 29.1915L51.0563 29.4499C52.0171 29.4807 52.9689 29.2577 53.8125 28.804C54.1345 28.6211 54.4014 28.3573 54.5859 28.0395C54.7704 27.7218 54.8658 27.3616 54.8625 26.9957C54.856 26.516 54.669 26.0558 54.3375 25.704C53.7775 25.2056 53.1013 24.8507 52.3688 24.6707L49.6125 23.7665C48.3982 23.4977 47.298 22.8661 46.4625 21.9582C45.8476 21.1359 45.5247 20.1373 45.5438 19.1165C45.5118 18.3921 45.6942 17.6742 46.0688 17.0499C46.354 16.4248 46.8079 15.8887 47.3813 15.4999L49.4813 14.4665L51.8438 14.2082H54.3375L55.5188 14.5957L56.3063 14.854C56.5688 14.9832 56.7 15.2415 56.8313 15.3707C56.956 15.5621 57.0028 15.7927 56.9625 16.0165V16.9207C56.9625 17.3082 56.8312 17.4374 56.5688 17.4374C56.4465 17.4476 56.3235 17.4296 56.2095 17.3847C56.0956 17.3399 55.9939 17.2694 55.9125 17.179C54.6896 16.755 53.4028 16.5367 52.1063 16.5332C51.2426 16.4774 50.38 16.6561 49.6125 17.0499C49.3156 17.2177 49.0723 17.4639 48.9099 17.7606C48.7476 18.0572 48.6727 18.3927 48.6938 18.729C48.7071 18.9771 48.7723 19.2199 48.8852 19.4421C48.9981 19.6644 49.1563 19.8613 49.35 20.0207C49.9219 20.5743 50.6568 20.936 51.45 21.054L54.075 21.9582C55.2634 22.1995 56.3301 22.8385 57.0938 23.7665C57.6988 24.4947 58.0241 25.4093 58.0125 26.3499C57.992 27.1094 57.8133 27.8568 57.4875 28.5457C57.1541 29.2138 56.6581 29.7906 56.0438 30.2248C55.4668 30.7714 54.7342 31.1319 53.9438 31.2582C53.0959 31.7173 52.1538 31.9822 51.1875 32.0332Z" fill="black"/>
<path d="M54.8625 41.2041C48.5625 45.7249 39.375 48.1791 31.5 48.1791C20.9339 48.2629 10.7215 44.4364 2.8875 37.4582C2.23125 36.9416 2.8875 36.1666 3.54375 36.6832C12.2577 41.585 22.1193 44.1671 32.1563 44.1749C39.6351 44.0758 47.0275 42.5857 53.9438 39.7832C54.9938 39.2666 55.9125 40.4291 54.8625 41.2041ZM57.4875 38.2332C56.7 37.1999 52.1063 37.7166 50.1375 37.9749C48.1688 38.2332 49.35 37.4582 49.875 37.0707C53.55 34.6166 59.4563 35.3916 60.1125 36.1666C60.7688 36.9416 59.9813 42.8832 56.5688 45.7249C56.0438 46.1124 55.5188 45.8541 55.7813 45.3374C56.0438 44.8207 58.275 39.2666 57.4875 38.2332Z" fill="black"/>
</g>
<defs>
<clipPath id="clip0_26_258">
<rect width="63" height="62" fill="white"/>
</clipPath>
</defs>
</svg>
