<svg width="82" height="82" viewBox="0 0 82 82" fill="none" xmlns="http://www.w3.org/2000/svg">
<path d="M33.3125 10.0258V13.293H24.9844V3.20312H33.3125V6.75859H28.5719V10.0258H33.3125ZM41.8648 6.75859H45.1961V3.20312H36.868C36.868 3.20312 36.868 4.99688 36.868 6.75859C37.9891 7.87969 38.5656 8.42422 40.1672 10.0258C39.2383 10.0258 36.868 10.0258 36.868 10.0258V13.293H45.1961V10.0258L41.8648 6.75859ZM53.6844 6.75859H57.0156V3.20312H48.6875C48.6875 3.20312 48.6875 4.99688 48.6875 6.75859C49.8086 7.87969 50.3852 8.42422 51.9867 10.0258C51.0578 10.0258 48.6875 10.0258 48.6875 10.0258V13.293H57.0156V10.0258L53.6844 6.75859ZM67.9703 18.0977L62.9094 72.9031L41 78.7969L19.0906 72.9031L14.0297 18.0977H67.9703ZM57.7844 29.2445H40.968H23.8633L24.6961 35.875H40.968H41.8969L40.968 36.2594L25.2727 42.7938L25.7852 49.2641L40.968 49.2961L49.1039 49.3281L48.5914 57.9445L40.968 60.0906H40.9039L33.5367 58.2328L33.0883 52.8836H33.0563H26.2656H26.2336L27.1305 63.2297L40.968 67.3297H41L54.7734 63.3258L56.5672 42.7938H41L57.1438 35.907L57.7844 29.2445Z" fill="black"/>
</svg>
