<svg width="82" height="75" viewBox="0 0 82 75" fill="none" xmlns="http://www.w3.org/2000/svg">
<path d="M19.8081 23.0344C19.8081 31.3594 20.0567 38.1727 20.3872 38.1727C20.6358 38.1727 24.9382 36.961 29.9864 35.5243C36.8539 33.4055 40.1646 32.8758 43.7239 33.0258L48.3569 33.2532L48.6055 50.8126L48.7721 68.4469H58.7017V49.9782C58.7017 32.0415 58.6197 31.5118 56.7978 29.0133C53.4871 24.4712 44.9642 23.4868 34.3708 26.3649L30.5629 27.4243V7.89616H19.8056L19.8081 23.0344ZM48.3595 13.4227C46.5376 16.3758 44.9667 19.0993 44.8002 19.4016C44.6336 19.779 46.8681 20.0063 49.7663 20.0063H54.9784L57.9561 15.6165C63.6653 7.44147 63.7499 7.89616 57.2949 7.89616H51.6677L48.3569 13.4204L48.3595 13.4227ZM19.8081 58.9852C19.8081 63.7524 20.1387 67.6899 20.4692 67.6899C20.7998 67.6899 23.2009 65.7235 25.8479 63.3001L30.5655 58.9102L25.7659 54.5954C23.1189 52.2493 20.7178 50.2805 20.3872 50.2805C20.0567 50.2805 19.8081 54.2157 19.8081 58.9852Z" fill="black"/>
</svg>
