<svg width="82" height="82" viewBox="0 0 82 82" fill="none" xmlns="http://www.w3.org/2000/svg">
<path d="M17.7453 8.87266V14.5102H19.6352H21.525V12.3V10.0898H23.0305H24.536V12.3V14.5102H26.4899H28.4438L28.4117 8.90469L28.3797 3.29922L26.4578 3.26719L24.536 3.23516V5.38125V7.49531H23.0305H21.525V5.38125V3.20312H19.6352H17.7453V8.87266Z" fill="black"/>
<path d="M29.8531 4.54844V5.89375L31.1664 5.92578L32.4477 5.95781L32.4797 10.218L32.5117 14.5102H34.3055H36.0992V10.218V5.89375H37.4446H38.7899L38.7578 4.58047L38.7258 3.29922L34.3055 3.26719L29.8531 3.20312V4.54844Z" fill="black"/>
<path d="M40.1992 8.87266V14.5102H41.7047H43.2102V10.6023V6.75859L44.075 9.57734C44.5555 11.1469 45.068 12.8766 45.2602 13.4531L45.5805 14.5102H46.7977H48.0148L49.0719 10.7625C49.6805 8.7125 50.193 6.91875 50.257 6.79063C50.3211 6.6625 50.3852 8.36016 50.3852 10.5063V14.4781H51.8906H53.3961V8.87266V3.20312H51.1539H48.8797L48.0469 6.11797C47.5984 7.71953 47.182 9.03281 47.118 9.03281C47.0859 9.03281 46.6375 7.75156 46.157 6.15L45.2922 3.29922L42.7617 3.26719L40.2312 3.23516L40.1992 8.87266Z" fill="black"/>
<path d="M55.4461 8.87266V14.5102H59.8344H64.2227V13.1648V11.8516H61.8203H59.3859V7.52734V3.20312H57.432H55.4781V8.87266H55.4461Z" fill="black"/>
<path d="M14.6063 19.4109C14.6063 20.468 18.8664 69.2516 18.9625 69.3156C19.1227 69.4758 40.3914 78.7648 40.6156 78.7648C40.7438 78.7648 61.8524 70.2766 62.0125 70.1484C62.0445 70.1164 67.3938 19.6352 67.3938 19.3148C67.3938 19.2508 55.5102 19.2188 41 19.2188C20.0195 19.2508 14.6063 19.2828 14.6063 19.4109ZM55.9266 34.3055V37.2844H43.5305H31.1024V40.3594V43.4344H43.4985H55.8945V52.4992V61.5641L48.3352 64.7352C44.1711 66.4648 40.6797 67.9062 40.6156 67.9062C40.5195 67.9062 37.0602 66.4648 32.8641 64.7352L25.2727 61.532V57.9766V54.3891H28.1875H31.0703L31.1024 55.9906L31.1344 57.5922L35.843 59.1617L40.5516 60.6992L45.1 59.1617C49.5524 57.6562 49.6484 57.5922 49.7766 57.1437C49.8406 56.8875 49.9047 54.9977 49.9688 52.9477L50.0328 49.232H37.6367H25.3047V40.2953V31.3266H40.6156H55.9266V34.3055Z" fill="black"/>
</svg>
