<svg width="78" height="82" viewBox="0 0 78 82" fill="none" xmlns="http://www.w3.org/2000/svg">
<path d="M63.8976 33.286L63.7149 33.3555C63.7149 33.3555 62.923 33.703 62.4967 33.8767L60.6693 34.7106L63.0449 34.9191C63.1667 34.9191 63.4103 34.9538 63.7149 34.9538C67.7351 35.1623 70.1107 35.5445 70.7807 36.1352C71.938 37.1775 71.8771 38.3241 70.5371 39.297C69.0752 40.4089 67.1869 41.347 64.9941 42.3894C64.0804 42.8411 62.984 43.1886 61.8266 43.6055C61.2784 43.814 60.6693 43.9877 60.1211 44.2309L56.7709 45.447L60.7302 45.308C65.9687 45.1343 73.1563 42.9106 76.141 40.5826C77.9684 39.158 78.5166 37.386 77.4811 35.8572C76.5065 34.3979 74.3136 33.3903 71.5117 33.008H71.3898C70.4762 32.9386 69.5625 32.9038 68.6488 32.9038C65.9077 32.9038 64.0804 33.1818 64.0195 33.1818L63.8976 33.286Z" fill="black"/>
<path d="M35.147 32.522C36.0607 33.0085 37.0353 33.5297 37.949 34.0508L38.619 34.433L39.4718 34.0508C39.5936 33.9814 39.7155 33.9466 39.8982 33.8771L40.6901 33.5297L40.1418 33.078C39.5936 32.5915 38.9845 32.1051 38.4363 31.6186C37.2181 30.5415 35.878 29.4297 34.6597 28.3525C31.1268 25.2602 31.4923 22.689 35.8171 20.0483C37.279 19.1449 38.9845 18.3458 40.6291 17.5466C41.2383 17.2686 41.8474 16.9559 42.3956 16.678C47.0249 14.3847 51.5324 11.7093 53.0552 7.92203C54.0907 5.38559 53.1771 3.2661 50.436 1.59831L47.8168 0L48.6695 2.11949C50.0096 5.45508 48.365 8.33898 43.7357 10.9449C42.822 11.4661 41.7865 11.9873 40.751 12.4737C40.02 12.8212 39.2891 13.1686 38.5581 13.5508C37.5835 14.072 36.548 14.5932 35.5125 15.1144C32.5887 16.6085 29.5431 18.172 26.7411 19.8398C24.4265 21.1949 24.0001 23.0712 25.462 25.2602C27.3503 28.3178 31.3096 30.472 35.147 32.522Z" fill="black"/>
<path d="M23.0864 39.6792H23.1473C23.2691 39.6792 23.391 39.6792 23.5128 39.6792L22.4773 39.9572C21.1372 40.3394 18.3962 41.6597 18.6398 43.0843C18.8226 44.1267 20.4672 44.8911 23.5737 45.3428C26.3148 45.7597 29.7258 45.9335 33.6851 45.9335C44.893 45.9335 57.3191 44.3004 57.4409 44.3004L58.2328 44.1962V43.7445C58.2328 43.536 58.2328 43.3623 55.5526 41.4165L55.1262 41.1038L54.4562 41.208C54.3344 41.208 44.3448 42.5979 30.3959 42.5979C29.3604 42.5979 28.3249 42.5979 27.3503 42.5631C25.5229 42.5284 24.2437 42.2852 23.8174 41.9029C23.3301 41.4513 23.8783 40.7911 23.8783 40.7911L24.8529 39.714C25.0356 39.714 25.2183 39.714 25.4011 39.714C42.3347 39.714 60.6083 36.7606 60.7911 36.7606L60.4256 35.614C60.3038 35.614 52.5679 35.9614 44.6493 36.3089C45.3194 35.9267 45.9894 35.5792 46.5985 35.2318C48.0604 34.4326 49.4614 33.6682 50.5578 32.7996C52.7507 31.0275 52.6898 29.1165 50.436 27.3445C49.5832 26.6843 48.7914 25.9894 47.7559 25.0513C45.7458 23.2445 45.8676 22.1674 48.1213 20.6733C49.5223 19.7352 51.2888 18.797 53.5425 17.8589C55.4308 17.0597 57.38 16.3301 59.5119 15.5309C60.4865 15.1835 61.4611 14.8013 62.4966 14.419L66.0904 13.064L61.7657 13.3419C61.4611 13.3419 61.2175 13.3767 61.0347 13.3767C60.6083 13.3767 60.3038 13.4114 59.9383 13.4809C58.7201 13.7936 57.5018 14.1063 56.2836 14.3843C53.1161 15.1835 49.8269 15.9826 46.7204 16.9555C44.4057 17.6852 42.1519 18.9013 40.4464 20.3258C36.9744 23.1402 37.5835 26.2326 42.2738 29.7072C45.5021 32.1046 45.5021 32.4868 42.8829 34.9538C42.6392 35.1623 42.7001 35.3707 42.7611 35.5792C42.7611 35.6835 42.822 35.8224 42.8829 36.0309L42.9438 36.4131C35.878 36.6911 29.1167 36.969 27.8376 36.969H27.7767C22.9646 36.8996 21.5636 36.5868 21.1372 36.4479C21.3809 36.3089 22.0509 35.9267 24.0001 35.4055C25.5229 34.9885 26.9239 34.7106 26.9848 34.6758L27.7767 34.5021L27.5939 33.4945H26.6193C26.3148 33.4945 22.66 34.0157 19.7972 34.6063C13.5232 35.8224 12.6095 36.6911 12.5486 37.3513C12.3659 38.5674 15.4115 39.2623 23.0864 39.6792Z" fill="black"/>
<path d="M30.5177 58.9639C21.1981 58.9639 16.3861 58.2342 16.3252 58.2342L15.8379 58.1648C17.2997 58.1995 18.8226 58.1995 20.4672 58.1995C29.9695 58.1995 42.8829 57.7131 58.9637 56.7749C67.9178 56.08 71.8771 54.3775 72.5471 52.9876C72.8517 52.397 72.5471 51.841 71.7553 51.4588L70.1106 50.6597L70.0497 51.841C69.7452 52.1537 67.0041 52.9876 58.9028 53.891C53.2989 54.5164 46.5376 55.0029 42.4565 55.0724C40.9946 55.1071 39.4109 55.1071 37.7663 55.1071C32.2232 55.1071 26.5584 54.9334 21.0763 54.7597C19.7971 54.7249 18.4571 54.6902 17.1779 54.6554C12.6095 54.5512 12.1222 54.0648 12.1222 54.0648C12.1222 53.9953 12.3659 53.6478 13.7668 53.0224C14.9242 52.5359 16.3861 52.119 17.2997 51.9105L20.8936 51.1114L17.0561 50.7639C16.3861 50.6944 15.6551 50.6597 14.8023 50.6597C11.0258 50.6597 4.02088 51.2851 1.21892 53.0224C0.366151 53.5436 0.000674886 54.0995 0.000674886 54.6902V54.7597C0.000674886 55.0376 -0.060236 55.6631 0.975272 56.2537C2.55899 57.1919 6.45737 57.7825 12.7313 58.0258L15.1678 59.2071C15.4115 59.3114 20.8327 61.8826 33.6242 61.8826C37.5835 61.8826 41.9083 61.6393 46.4158 61.1181C54.1516 60.2495 68.6488 57.8868 76.9937 55.802L76.2628 54.6902C55.3699 58.2342 39.8373 58.9639 30.5177 58.9639Z" fill="black"/>
<path d="M45.8066 47.9147C42.5174 48.2969 39.4108 48.5053 36.6089 48.5053C29.3603 48.5053 25.6447 47.2197 24.6701 46.8375L24 46.5596L19.2489 48.9223L20.1017 49.374C20.2844 49.4782 25.401 52.0841 37.3398 52.0841C42.9437 52.0841 49.1568 51.5282 55.7962 50.3816L59.5119 49.7562L46.0503 47.9147H45.8066Z" fill="black"/>
<path d="M67.8569 70.0473C68.1614 67.9625 67.1259 67.2329 63.3494 67.3371C61.4611 67.3719 59.5728 67.6498 57.5018 67.8235C57.3191 67.3719 57.0754 66.8854 56.8927 66.3295C60.5474 65.5651 64.1412 65.0439 67.9178 65.5651C70.5979 65.9125 72.3035 66.8507 72.3644 68.4142C72.5471 71.4371 72.4253 74.4947 72.4253 77.6566C70.9634 77.5176 68.9533 78.3515 68.6487 76.9269C66.395 77.2396 64.2021 77.7956 61.8875 77.8651C58.6591 78.0041 56.5881 77.0312 55.979 75.4676C55.309 73.6956 56.5272 71.8541 59.3901 71.2634C62.0093 70.6727 64.8722 70.4295 67.8569 70.0473ZM67.9787 71.9583C65.9686 72.132 64.2021 72.2015 62.4966 72.4447C60.791 72.688 59.8774 73.7651 60.4256 74.7032C60.9738 75.7108 62.4966 76.1625 64.324 75.9193C67.4305 75.4676 68.0396 75.0507 67.9787 73.1744C67.9787 72.8617 67.9787 72.549 67.9787 71.9583ZM33.076 77.6219C31.9796 77.6219 31.005 77.6219 29.8476 77.6219C29.6649 77.3439 29.4822 77.0312 29.2385 76.6837C28.9949 76.6837 28.8121 76.6837 28.6903 76.7185C26.802 77.5176 24.731 77.9693 22.3554 77.8998C19.3707 77.8303 17.4825 77.1007 16.6906 75.6761C15.8378 74.043 16.7515 72.2363 19.3098 71.5066C21.259 70.9507 23.5737 70.7422 25.7665 70.4295C26.6193 70.2905 27.5939 70.3252 28.5076 70.2905C28.9949 68.0668 27.8375 67.3024 24.1828 67.3371C23.2082 67.3371 22.1727 67.4413 21.1981 67.5456C20.2235 67.6498 19.3098 67.7888 18.3352 67.9278C17.2997 66.3642 17.2388 66.2252 19.7971 65.9125C22.4164 65.5998 25.2183 65.4261 27.8375 65.5303C31.1268 65.6693 32.7714 66.5727 32.9542 68.449C33.2587 71.1939 33.1369 73.9388 33.1369 76.6837C33.2587 76.9617 33.1369 77.2744 33.076 77.6219ZM28.5685 71.9583C26.6802 72.0973 24.9138 72.1668 23.2082 72.41C21.5027 72.6532 20.7108 73.6608 21.1981 74.6685C21.6245 75.5719 23.0255 76.1278 24.731 75.8846C28.8731 75.3286 29.1776 74.9117 28.5685 71.9583ZM35.6343 65.7041C35.878 65.6346 35.9389 65.5998 35.9998 65.5998C40.5682 65.5303 40.5073 65.5303 41.7864 68.032C42.8829 70.1863 44.1011 72.3752 45.2584 74.5295C45.4412 74.5295 45.6239 74.5642 45.8066 74.5642C47.0858 71.6108 48.365 68.6227 49.6441 65.6346C50.9233 65.6346 52.3852 65.6346 54.2734 65.6346C53.177 67.9625 52.2633 70.221 51.106 72.41C50.3141 73.8693 49.2177 75.2591 48.365 76.6837C47.8777 77.4829 47.0858 77.7956 45.6848 77.6566C45.5021 77.6566 45.2584 77.6219 45.0757 77.6566C42.8219 77.9346 41.7864 77.3786 41.1773 76.093C39.4718 72.6532 37.5226 69.2134 35.6343 65.7041ZM6.45735 81.9998C5.72641 81.5134 5.05637 81.0269 4.2036 80.4363C8.52837 79.2897 8.83293 77.1702 8.77201 74.8422C8.65019 70.7769 8.77201 66.7464 8.77201 62.7159C8.77201 62.299 8.77201 61.882 8.77201 61.3608C10.4166 61.3608 11.8785 61.3608 13.5232 61.3608C13.5232 61.6736 13.5841 61.9515 13.5841 62.2642C13.5841 66.7812 13.5841 71.2634 13.5841 75.7803C13.5841 79.0812 11.9395 80.4363 6.45735 81.9998Z" fill="black"/>
</svg>
