<svg width="83" height="61" viewBox="0 0 83 61" fill="none" xmlns="http://www.w3.org/2000/svg">
<path d="M77.8799 28.8587C77.6672 28.8473 77.4208 28.8397 77.1718 28.8397C75.9165 28.8397 74.7156 29.0112 73.6106 29.3239L73.6781 29.3067C73.3538 29.402 72.8351 29.402 72.791 29.7051C72.97 29.8309 72.9959 30.0387 73.1463 30.2141C73.4498 30.5915 73.8233 30.9118 74.2591 31.1786L74.2668 31.1844C74.7207 31.4455 75.1747 31.699 75.6519 31.9221C76.4949 32.3033 77.452 32.5302 78.2768 32.9133C78.7462 33.1364 79.2261 33.4204 79.7033 33.6587C79.9394 33.7769 80.0924 33.9923 80.3959 34.0685V34.0209C80.248 33.8779 80.2013 33.6701 80.0561 33.5119C79.8382 33.3518 79.6229 33.2088 79.4077 33.0525C78.7644 32.4329 78.02 31.903 77.1848 31.4608L77.1537 31.4455C76.4612 31.0986 74.9438 30.6125 74.6585 30.0273L74.617 29.9929C75.1824 29.9339 75.6856 29.8462 76.1707 29.728L76.1084 29.7413C76.845 29.5984 77.5194 29.6289 78.2794 29.4897C78.6217 29.4249 78.9693 29.3467 79.3169 29.2667V29.1237C78.9278 28.8378 78.6373 28.4489 78.2353 28.182C77.1744 27.4958 76.0047 26.8514 74.7726 26.2719L74.6559 26.2205C73.9763 25.9021 73.1126 25.6963 72.3968 25.4256C72.1374 25.3303 71.7042 25.2826 71.5538 25.1225C71.2166 24.7698 70.9183 24.3657 70.6823 23.9387L70.6615 23.8968C70.0252 22.9894 69.4338 22.0661 68.8874 21.127C68.5139 20.3969 68.143 19.7983 67.7254 19.2188L67.7851 19.3084C65.7464 16.7941 62.9062 14.7735 59.5162 13.3952L59.4047 13.3533C58.6032 13.0616 57.672 12.8348 56.6942 12.7071L56.6293 12.6995C56.0872 12.6804 55.5477 12.6518 55.0082 12.6346C54.6296 12.4555 54.3027 12.2724 53.9967 12.0704L54.0045 12.0761C52.7724 11.5042 49.5847 10.2652 48.6769 11.9045C48.0933 12.9377 49.5432 13.9576 50.0438 14.4818C50.4432 14.8306 50.8064 15.2214 51.1202 15.6351L51.1462 15.6732C51.2992 15.9496 51.3407 16.2336 51.4937 16.5215C51.8698 17.3831 52.2511 18.0903 52.6842 18.7747L52.6168 18.6565C52.8736 19.0358 53.1408 19.358 53.439 19.663L53.4183 19.6401C53.5921 19.8136 53.8903 19.8955 53.9604 20.1815C53.7373 20.5265 53.5635 20.9268 53.4676 21.3443L53.4624 21.371C53.1822 22.0039 53.0188 22.7339 53.0188 23.4907C53.0188 24.6745 53.4157 25.7897 54.116 26.7695L54.0901 26.7314C54.4376 27.1259 55.2624 28.0028 56.3674 27.6673C57.34 27.3814 57.1247 26.4759 57.4049 25.6791C57.4697 25.4885 57.4282 25.3627 57.5605 25.233V25.2693C57.864 25.7172 58.17 26.1442 58.4476 26.5922C59.2309 27.4214 60.162 28.1267 61.2255 28.7081L61.2592 28.7253C61.7779 29.0112 62.1903 29.5069 62.8388 29.6822V29.6346H62.7895C62.6417 29.5164 62.4782 29.4115 62.2993 29.3219L62.2889 29.3181C61.8869 29.0284 61.5134 28.7158 61.1762 28.386L61.1554 28.365C60.3099 27.5263 59.5058 26.5769 58.8081 25.58L58.7329 25.4637C58.3775 24.9643 58.0792 24.4248 57.7939 23.9311C57.6642 23.7404 57.6642 23.4545 57.4464 23.3592C57.0625 23.6756 56.7175 24.0283 56.4296 24.4076L56.4089 24.4381C56.0769 25.1492 55.859 25.9708 55.8019 26.8229V26.8438C55.7137 26.861 55.7578 26.8438 55.7137 26.8781C55.0212 26.7542 54.7826 26.2262 54.5232 25.782C54.1705 25.0844 53.9656 24.2761 53.9656 23.4354C53.9656 22.7568 54.0978 22.1011 54.3468 21.4815L54.3313 21.5311C54.4843 21.1975 55.1327 20.1453 54.8734 19.825C54.7385 19.5219 54.3105 19.3484 54.0719 19.1025C53.7892 18.809 53.5298 18.4754 53.3145 18.1227L53.2938 18.0846C52.775 17.1944 52.5157 16.2069 51.9528 15.3167C51.613 14.8516 51.2551 14.4513 50.8531 14.0777L50.8712 14.0948C50.4433 13.7307 50.049 13.3247 49.7066 12.8939L49.6781 12.8558C49.5718 12.6823 49.4187 12.3945 49.5899 12.2038C49.621 12.0933 49.7403 12.0075 49.8934 11.9903C50.1787 11.8188 50.9827 12.0418 51.2629 12.1371C52.0851 12.3659 52.7932 12.6346 53.4494 12.9511L53.4079 12.932C53.7114 13.0883 54.0408 13.3914 54.4298 13.4696H54.8837C55.5763 13.582 56.3596 13.5039 57.008 13.643C58.1986 13.9385 59.2283 14.3083 60.1802 14.762L60.1257 14.7372C62.9892 16.0964 65.2821 17.934 66.8332 20.1052L66.885 20.1834C67.1444 20.5494 67.2585 20.8868 67.4946 21.268C67.9485 22.0534 68.5087 22.8483 68.9704 23.607C69.4087 24.4229 69.9275 25.1282 70.5448 25.7782L70.5137 25.7439C70.8379 26.0775 72.14 26.251 72.7236 26.4244C73.3383 26.5827 73.8311 26.7333 74.3083 26.9029L74.2124 26.8724C74.9568 27.206 75.683 27.5873 76.3833 27.9533C76.7387 28.1344 77.8203 28.5328 77.8851 28.853L77.8799 28.8587ZM47.4708 42.7991C47.4708 42.8277 47.4734 42.8601 47.4734 42.8925C47.4734 43.9562 46.8276 44.9074 45.8056 45.5479L45.7978 45.5518C44.6773 46.2228 43.2326 46.6307 41.6582 46.6307C41.5363 46.6307 41.4144 46.6288 41.2951 46.6231H41.3107C39.3939 46.604 37.6301 46.1465 36.1854 45.3821L36.2113 45.3954L36.9791 44.2612C38.0918 44.7187 39.4146 45.0028 40.8204 45.0428H40.836C40.906 45.0466 40.9864 45.0485 41.0694 45.0485C41.9306 45.0485 42.732 44.8503 43.3882 44.5129L43.3753 44.5186C43.9692 44.1869 44.3479 43.6684 44.3479 43.0851C44.3479 43.0736 44.3479 43.0641 44.3479 43.0527V43.0546C44.3479 42.2692 43.6035 41.602 42.247 41.0416C40.989 40.5345 38.4783 39.4765 38.4783 39.4765C37.2385 38.9123 36.4266 37.9191 36.4266 36.7868C36.4266 36.7468 36.4266 36.7068 36.4292 36.6667V36.6724C36.4266 36.6362 36.4266 36.5943 36.4266 36.5524C36.4266 35.5706 37.0154 34.6899 37.9466 34.0914L37.9517 34.0876C38.9426 33.4699 40.2368 33.0944 41.6504 33.0944C41.7412 33.0944 41.8294 33.0963 41.9176 33.0982H41.9046C41.928 33.0982 41.9565 33.0982 41.985 33.0982C43.6424 33.0982 45.1857 33.4623 46.4722 34.0895L46.4411 34.0761L45.7512 35.2104C44.737 34.8749 43.5542 34.6728 42.3092 34.6633H42.3041C42.2418 34.6594 42.1718 34.6575 42.0992 34.6575C41.3729 34.6575 40.7037 34.8444 40.1798 35.157L40.185 35.1532C39.6947 35.4524 39.3835 35.9004 39.3809 36.4018C39.3809 37.1833 40.1383 37.8543 41.5389 38.4262C42.8124 38.939 45.3854 40.0217 45.3854 40.0217C46.6512 40.5688 47.489 41.5639 47.489 42.7038C47.489 42.7381 47.489 42.7744 47.4864 42.8087V42.8029L47.4708 42.7991ZM52.8451 43.8114C52.137 42.7724 51.7246 41.5486 51.7246 40.2543C51.7246 40.0503 51.7349 39.8483 51.7557 39.65L51.7531 39.6767C51.7531 36.3586 53.1252 34.6988 55.8694 34.6976C55.9368 34.6938 56.0172 34.6919 56.1002 34.6919C57.3322 34.6919 58.4138 35.1646 59.0286 35.8775L59.0363 35.8871C59.7392 36.9203 60.1517 38.1403 60.1517 39.4289C60.1517 39.6271 60.1413 39.8235 60.1231 40.0179L60.1257 39.9912C60.1257 43.3361 58.7536 45.0098 56.0094 45.0123C55.9394 45.0161 55.859 45.018 55.7786 45.018C54.5466 45.018 53.4624 44.5453 52.8477 43.8323L52.8399 43.8228L52.8451 43.8114ZM63.5158 46.7699L60.2217 45.5784C60.5226 45.3935 60.7923 45.1991 61.0413 44.9894L61.0491 44.9837C62.3797 43.6646 63.1786 42.0042 63.1786 40.2085C63.1786 40.0008 63.1682 39.7949 63.1474 39.5909L63.15 39.6176C63.15 35.2586 60.8217 33.0779 56.1651 33.0754C56.0613 33.0715 55.9394 33.0696 55.8175 33.0696C53.8281 33.0696 52.041 33.712 50.8245 34.7319L50.8193 34.7376C49.4939 36.0567 48.6977 37.7152 48.6977 39.5109C48.6977 39.7129 48.708 39.9131 48.7288 40.1113L48.7262 40.0846C48.7028 40.2772 48.6899 40.5021 48.6899 40.7289C48.6899 42.395 49.4006 43.9391 50.6092 45.2067L50.5859 45.1819C51.7505 46.0931 53.4027 46.6612 55.2313 46.6612C55.4025 46.6612 55.5711 46.6555 55.7371 46.6459L55.7137 46.6479C55.7371 46.6479 55.7682 46.6479 55.7967 46.6479C56.6034 46.6479 57.3841 46.5621 58.1233 46.4039L58.0663 46.4153L62.3615 48.2548L63.5287 46.7737L63.5158 46.7699ZM74.2746 46.4477H65.749V33.2755H68.6177V44.8293H74.2746V46.4477ZM34.3283 36.7296C33.5839 40.7023 31.8798 44.2879 29.3872 47.4999L29.4909 47.3532C28.4923 48.7657 26.6041 49.7493 24.3864 49.9075L24.3605 49.9094C23.6887 49.8828 23.0636 49.7646 22.4956 49.572L22.5267 49.5816V48.4054C22.8821 48.4454 23.2919 48.4683 23.7095 48.4683C23.7328 48.4683 23.7562 48.4683 23.7821 48.4683C23.8236 48.4702 23.8677 48.4702 23.9144 48.4702C24.664 48.4702 25.3513 48.2701 25.8804 47.9365L25.8752 47.9384C26.4459 47.5934 26.8116 47.0787 26.8323 46.4992C26.6949 45.6642 26.4329 44.9017 26.0568 44.1831L26.0879 44.2479L22.8017 36.7296H25.7507L28.1085 42.3512C28.5287 43.1442 28.7725 44.063 28.7725 45.0218C28.7725 45.0237 28.7725 45.0256 28.7725 45.0256C30.0227 42.6199 30.972 39.8139 31.4544 36.9031L31.4777 36.7277L34.3283 36.7296ZM21.3077 46.4477H18.3041C18.2194 42.9389 17.928 39.4371 17.43 35.9424H17.4041L12.8339 46.4477H10.5488L6.00972 35.9424H5.97859C5.62412 39.4384 5.41316 42.9402 5.34572 46.4477H2.60672C2.78482 41.7647 3.22749 37.3733 3.93472 33.2736H7.66194L11.9883 42.9554H12.0142L16.3795 33.2736H19.9278C20.7128 38.0735 21.1754 42.4649 21.3154 46.4477H21.3077ZM55.7786 15.0194C55.7734 15.0194 55.7656 15.0194 55.7578 15.0194C55.4492 15.0194 55.1509 15.048 54.8656 15.1013L54.8915 15.0975V15.128H54.9356C55.1587 15.372 55.3869 15.5836 55.6333 15.7819L55.6282 15.778C55.8019 16.0335 55.9524 16.287 56.1262 16.5405L56.1702 16.5043C56.453 16.3404 56.6319 16.0888 56.6319 15.8066C56.6319 15.7723 56.6293 15.7399 56.6242 15.7056V15.7094C56.4945 15.597 56.4763 15.4864 56.3648 15.3758C56.2351 15.2157 55.9576 15.1375 55.7812 15.0117L55.7786 15.0194Z" fill="black"/>
</svg>
