<svg width="82" height="82" viewBox="0 0 82 82" fill="none" xmlns="http://www.w3.org/2000/svg">
<path d="M32.8961 12.6524H19.4109V48.4954C19.4109 57.3681 16.368 59.8345 11.0828 59.8345C8.61641 59.8345 6.37422 59.4181 4.64453 58.8095L3.20312 69.3478C5.66953 70.2126 9.48125 70.7251 12.4602 70.7251C24.632 70.7251 32.8961 65.0235 32.8961 48.6235V12.6524ZM62.3328 11.3071C49.2641 11.3071 41 18.7384 41 28.5399C41 36.9962 47.3742 42.2813 56.6313 45.7087C63.3258 48.111 65.9844 50.2251 65.9844 53.7165C65.9844 57.5603 62.9094 60.0267 57.1437 60.0267C51.7625 60.0267 46.8937 58.2329 43.5625 56.4392L41 67.1056C44.1391 68.8993 50.0328 70.6931 56.375 70.6931C71.6859 70.6931 78.7969 62.4931 78.7969 52.8517C78.7969 44.6517 74.2484 39.3665 64.4148 35.6188C57.1437 32.704 54.0688 31.1024 54.0688 27.4188C54.0688 24.504 56.7273 21.8774 62.1727 21.8774C67.5539 21.8774 71.2375 23.6712 73.3836 24.7923L76.6188 13.9978C73.2555 12.5243 68.707 11.3071 62.3328 11.3071Z" fill="black"/>
</svg>
