<svg width="82" height="82" viewBox="0 0 82 82" fill="none" xmlns="http://www.w3.org/2000/svg">
<path d="M69.0338 56.0061C60.598 67.2435 42.5853 63.451 31.0336 63.9943C31.0336 63.9943 28.987 64.1105 26.9302 64.4487C26.9302 64.4487 27.7092 64.1173 28.7034 63.7722C36.8146 60.9671 40.6481 60.4034 45.5783 57.8716C54.8375 53.1293 64.0557 42.7939 65.9314 32.0587C62.4054 42.3839 51.6839 51.2706 41.9225 54.8786C35.2429 57.3455 23.1582 59.744 23.1548 59.744C22.9906 59.6599 22.8277 59.5733 22.6662 59.4843C14.4491 55.4868 14.2099 37.686 29.1373 31.9494C35.6837 29.4347 41.9396 30.815 49.0155 29.1306C56.5595 27.3369 65.2993 21.6823 68.8493 14.2886C72.8297 26.1035 77.613 44.5808 69.0338 56.0061ZM69.1773 10.6328C68.2229 12.9211 67.0015 15.0886 65.5385 17.0903C62.3582 13.8125 58.552 11.2069 54.3456 9.42793C50.1392 7.649 45.6183 6.73304 41.0513 6.73438C22.181 6.73438 6.83335 22.082 6.83335 40.9489C6.83114 45.6551 7.80288 50.3108 9.68743 54.6232C11.572 58.9356 14.3286 62.8114 17.7838 66.0067L18.5354 66.6695C17.9875 66.1208 17.68 65.3768 17.6805 64.6014C17.681 63.8259 17.9894 63.0824 18.538 62.5343C19.0866 61.9862 19.8303 61.6784 20.6058 61.6785C21.3813 61.6787 22.1249 61.9868 22.6732 62.5351C23.2216 63.0835 23.5297 63.8271 23.5299 64.6026C23.53 65.378 23.2222 66.1218 22.6741 66.6704C22.126 67.219 21.3825 67.5274 20.607 67.5279C19.8315 67.5283 19.0876 67.2208 18.5388 66.673L19.0479 67.124C25.1993 72.3246 32.9961 75.1745 41.0513 75.1668C59.0844 75.1668 73.8957 61.1311 75.1633 43.4191C76.0994 34.7442 73.5369 23.7289 69.1773 10.6328Z" fill="black"/>
</svg>
