<svg width="96" height="99" viewBox="0 0 96 99" fill="none" xmlns="http://www.w3.org/2000/svg">
<path d="M73.54 26.5165C76.1737 27.2097 78.5668 28.7698 80.4174 31C81.4369 32.207 82.3221 33.5505 83.0533 35.0005C83.0874 35.158 78.3075 38.791 75.4087 40.8175C75.3035 40.898 74.8858 40.3835 74.4125 39.5925C73.8829 38.5627 73.1313 37.7016 72.2278 37.0895C71.3243 36.4774 70.2984 36.1344 69.2459 36.0925C65.914 35.8335 63.7669 37.8075 63.7824 41.108C63.7536 41.9189 63.917 42.7237 64.2557 43.439C64.9889 45.154 66.3502 46.183 70.6257 48.2795C78.4962 52.112 81.8746 54.639 83.9598 58.23C85.1384 60.4989 85.8644 63.032 86.0867 65.6516C86.309 68.2713 86.0223 70.9143 85.2468 73.3955C84.1809 76.1165 82.4907 78.4652 80.3516 80.1977C78.2125 81.9302 75.7025 82.9834 73.0822 83.248C70.2968 83.6095 67.4825 83.5766 64.7043 83.15C60.4488 82.359 56.5287 80.0483 53.5173 76.556C52.3794 75.1065 51.4161 73.493 50.6525 71.7575C50.9736 71.4873 51.3117 71.244 51.6641 71.0295C52.153 70.7145 54.003 69.5105 55.7479 68.366L58.9159 66.266L59.578 67.358C60.6931 69.1621 62.1125 70.6989 63.7545 71.88C65.4129 72.9091 67.2913 73.3967 69.1803 73.2886C71.0693 73.1804 72.8947 72.4807 74.4527 71.2675C75.2564 70.3813 75.7588 69.2034 75.8719 67.9402C75.9851 66.677 75.7017 65.4091 75.0715 64.3585C74.2176 62.976 72.4727 61.814 67.5134 59.3815C63.6247 57.8981 60.0828 55.4393 57.1525 52.189C55.7569 50.3899 54.7263 48.2671 54.133 45.9695C53.6942 43.3521 53.6294 40.6721 53.9411 38.0315C54.5233 34.993 55.9171 32.2303 57.9337 30.118C59.9503 28.0057 62.4921 26.6457 65.2148 26.2225C67.9872 25.8477 70.7937 25.9468 73.54 26.5165ZM47.7289 31.707L47.7629 36.796H33.4389V82.814H23.3378V36.8065H9.01371V31.8085C8.97561 30.0969 9.01692 28.3842 9.13746 26.6775C9.19005 26.597 17.899 26.5585 28.4579 26.5795L47.6732 26.639L47.7289 31.707Z" fill="black"/>
</svg>
