<svg width="42" height="58" viewBox="0 0 42 58" fill="none" xmlns="http://www.w3.org/2000/svg">
<path d="M15.1875 5.58047V8.05078H8.89063V0.421875H15.1875V3.11016H11.6031V5.58047H15.1875ZM21.6539 3.11016H24.1727V0.421875H17.8758C17.8758 0.421875 17.8758 1.77813 17.8758 3.11016C18.7234 3.95781 19.1594 4.36953 20.3703 5.58047C19.668 5.58047 17.8758 5.58047 17.8758 5.58047V8.05078H24.1727V5.58047L21.6539 3.11016ZM30.5906 3.11016H33.1094V0.421875H26.8125C26.8125 0.421875 26.8125 1.77813 26.8125 3.11016C27.6602 3.95781 28.0961 4.36953 29.307 5.58047C28.6047 5.58047 26.8125 5.58047 26.8125 5.58047V8.05078H33.1094V5.58047L30.5906 3.11016ZM41.3922 11.6836L37.5656 53.1219L21 57.5781L4.43438 53.1219L0.607819 11.6836H41.3922ZM33.6906 20.1117H20.9758H8.04297L8.67266 25.125H20.9758H21.6781L20.9758 25.4156L9.1086 30.3563L9.4961 35.2484L20.9758 35.2727L27.1273 35.2969L26.7398 41.8117L20.9758 43.4344H20.9273L15.357 42.0297L15.018 37.9852H14.9938H9.85938H9.83516L10.5133 45.8078L20.9758 48.9078H21L31.4141 45.8805L32.7703 30.3563H21L33.2063 25.1492L33.6906 20.1117Z" fill="#24FF00"/>
</svg>
