<svg width="62" height="62" viewBox="0 0 62 62" fill="none" xmlns="http://www.w3.org/2000/svg">
<path d="M13.4172 6.70859V10.9711H14.8461H16.275V9.3V7.62891H17.4133H18.5516V9.3V10.9711H20.0289H21.5062L21.482 6.73281L21.4578 2.49453L20.0047 2.47031L18.5516 2.44609V4.06875V5.66719H17.4133H16.275V4.06875V2.42188H14.8461H13.4172V6.70859Z" fill="#24FF00"/>
<path d="M22.5719 3.43906V4.45625L23.5648 4.48047L24.5336 4.50469L24.5578 7.72578L24.582 10.9711H25.9383H27.2945V7.72578V4.45625H28.3117H29.3289L29.3047 3.46328L29.2805 2.49453L25.9383 2.47031L22.5719 2.42188V3.43906Z" fill="#24FF00"/>
<path d="M30.3945 6.70859V10.9711H31.5328H32.6711V8.01641V5.11016L33.325 7.24141C33.6883 8.42813 34.0758 9.73594 34.2211 10.1719L34.4633 10.9711H35.3836H36.3039L37.1031 8.1375C37.5633 6.5875 37.9508 5.23125 37.9992 5.13438C38.0477 5.0375 38.0961 6.32109 38.0961 7.94375V10.9469H39.2344H40.3727V6.70859V2.42188H38.6773H36.9578L36.3281 4.62578C35.9891 5.83672 35.6742 6.82969 35.6258 6.82969C35.6016 6.82969 35.2625 5.86094 34.8992 4.65L34.2453 2.49453L32.332 2.47031L30.4187 2.44609L30.3945 6.70859Z" fill="#24FF00"/>
<path d="M41.9227 6.70859V10.9711H45.2406H48.5586V9.95391V8.96094H46.7422H44.9016V5.69141V2.42188H43.4242H41.9469V6.70859H41.9227Z" fill="#24FF00"/>
<path d="M11.0437 14.6766C11.0437 15.4758 14.2648 52.3609 14.3375 52.4094C14.4586 52.5305 30.5398 59.5539 30.7094 59.5539C30.8062 59.5539 46.7664 53.1359 46.8875 53.0391C46.9117 53.0148 50.9562 14.8461 50.9562 14.6039C50.9562 14.5555 41.9711 14.5312 31 14.5312C15.1367 14.5555 11.0437 14.5797 11.0437 14.6766ZM42.2859 25.9383V28.1906H32.9133H23.5164V30.5156V32.8406H32.8891H42.2617V39.6945V46.5484L36.5461 48.9461C33.3977 50.2539 30.7578 51.3437 30.7094 51.3437C30.6367 51.3437 28.0211 50.2539 24.8484 48.9461L19.1086 46.5242V43.8359V41.1234H21.3125H23.4922L23.5164 42.3344L23.5406 43.5453L27.1008 44.732L30.6609 45.8945L34.1 44.732C37.4664 43.5937 37.5391 43.5453 37.6359 43.2062C37.6844 43.0125 37.7328 41.5836 37.7812 40.0336L37.8297 37.2242H28.457H19.1328V30.4672V23.6859H30.7094H42.2859V25.9383Z" fill="#24FF00"/>
</svg>
