<svg width="62" height="62" viewBox="0 0 62 62" fill="none" xmlns="http://www.w3.org/2000/svg">
<path d="M50.7904 25.1678L50.6452 25.2203C50.6452 25.2203 50.0157 25.4831 49.6768 25.6144L48.2243 26.2449L50.1126 26.4025C50.2094 26.4025 50.4031 26.4288 50.6452 26.4288C53.8407 26.5864 55.729 26.8754 56.2616 27.322C57.1815 28.1102 57.1331 28.9771 56.0679 29.7127C54.9059 30.5534 53.405 31.2627 51.6619 32.0508C50.9357 32.3924 50.0642 32.6551 49.1442 32.9703C48.7085 33.128 48.2243 33.2593 47.7885 33.4432L45.1256 34.3627L48.2727 34.2576C52.4366 34.1263 58.1499 32.4449 60.5223 30.6847C61.9748 29.6076 62.4106 28.2678 61.5875 27.1119C60.8128 26.0085 59.0698 25.2466 56.8426 24.9576H56.7458C56.0195 24.9051 55.2932 24.8788 54.567 24.8788C52.3882 24.8788 50.9357 25.089 50.8872 25.089L50.7904 25.1678Z" fill="#24FF00"/>
<path d="M27.9374 24.5898C28.6637 24.9576 29.4383 25.3517 30.1646 25.7458L30.6972 26.0347L31.375 25.7458C31.4719 25.6932 31.5687 25.6669 31.7139 25.6144L32.3434 25.3517L31.9076 25.0102C31.4719 24.6424 30.9877 24.2746 30.5519 23.9068C29.5836 23.0924 28.5184 22.2517 27.55 21.4373C24.7418 19.0991 25.0323 17.1551 28.47 15.1585C29.632 14.4754 30.9877 13.8712 32.295 13.2669C32.7791 13.0568 33.2633 12.8203 33.6991 12.6102C37.3788 10.8763 40.9617 8.85339 42.1721 5.98983C42.9952 4.07203 42.2689 2.46949 40.0902 1.20847L38.0082 0L38.6861 1.60254C39.7512 4.12458 38.444 6.30508 34.7642 8.27542C34.038 8.66949 33.2149 9.06356 32.3918 9.43135C31.8108 9.69407 31.2298 9.95678 30.6488 10.2458C29.8741 10.6398 29.051 11.0339 28.2279 11.428C25.9039 12.5576 23.483 13.7398 21.2558 15.0008C19.4159 16.0254 19.077 17.4441 20.239 19.0991C21.74 21.411 24.8871 23.0398 27.9374 24.5898Z" fill="#24FF00"/>
<path d="M18.3507 30.0017H18.3992C18.496 30.0017 18.5928 30.0017 18.6897 30.0017L17.8666 30.2119C16.8014 30.5008 14.6226 31.4991 14.8163 32.5763C14.9615 33.3644 16.2688 33.9424 18.7381 34.2839C20.9169 34.5991 23.6282 34.7305 26.7754 34.7305C35.6842 34.7305 45.5613 33.4958 45.6582 33.4958L46.2876 33.4169V33.0754C46.2876 32.9178 46.2876 32.7864 44.1572 31.3152L43.8183 31.0788L43.2857 31.1576C43.1889 31.1576 35.2484 32.2085 24.1608 32.2085C23.3377 32.2085 22.5146 32.2085 21.74 32.1822C20.2874 32.1559 19.2707 31.972 18.9317 31.683C18.5444 31.3415 18.9802 30.8424 18.9802 30.8424L19.7548 30.028C19.9001 30.028 20.0453 30.028 20.1906 30.028C33.6506 30.028 48.1759 27.7949 48.3211 27.7949L48.0306 26.928C47.9338 26.928 41.7848 27.1907 35.4905 27.4534C36.0231 27.1644 36.5557 26.9017 37.0399 26.639C38.2019 26.0347 39.3155 25.4568 40.187 24.8C41.93 23.4602 41.8816 22.0152 40.0902 20.6754C39.4123 20.1763 38.7829 19.6508 37.9598 18.9415C36.362 17.5754 36.4588 16.761 38.2503 15.6314C39.3639 14.922 40.768 14.2127 42.5594 13.5034C44.0604 12.8991 45.6097 12.3475 47.3043 11.7432C48.079 11.4805 48.8537 11.1915 49.6768 10.9025L52.5334 9.87796L49.0958 10.0881C48.8537 10.0881 48.66 10.1144 48.5148 10.1144C48.1759 10.1144 47.9338 10.1407 47.6433 10.1932C46.6749 10.4297 45.7066 10.6661 44.7382 10.8763C42.2205 11.4805 39.606 12.0847 37.1367 12.8203C35.2968 13.372 33.5054 14.2915 32.1497 15.3686C29.3899 17.4966 29.8741 19.8347 33.6022 22.4619C36.1683 24.2746 36.1683 24.5636 34.0864 26.4288C33.8927 26.5864 33.9411 26.7441 33.9896 26.9017C33.9896 26.9805 34.038 27.0856 34.0864 27.2432L34.1348 27.5322C28.5184 27.7424 23.1441 27.9525 22.1273 27.9525H22.0789C18.2539 27.9 17.1403 27.6636 16.8014 27.5585C16.995 27.4534 17.5276 27.1644 19.077 26.7703C20.2874 26.4551 21.401 26.2449 21.4494 26.2186L22.0789 26.0873L21.9336 25.3254H21.1589C20.9169 25.3254 18.0118 25.7195 15.7362 26.1661C10.7492 27.0856 10.0229 27.7424 9.97453 28.2415C9.82927 29.161 12.2501 29.6864 18.3507 30.0017Z" fill="#24FF00"/>
<path d="M24.2577 44.5822C16.8498 44.5822 13.0248 44.0305 12.9764 44.0305L12.5891 43.978C13.7511 44.0042 14.9615 44.0042 16.2688 44.0042C23.8219 44.0042 34.0864 43.6364 46.8686 42.9271C53.986 42.4017 57.1331 41.1144 57.6657 40.0636C57.9078 39.6169 57.6657 39.1966 57.0363 38.9076L55.729 38.3034L55.6806 39.1966C55.4385 39.4331 53.2597 40.0636 46.8202 40.7466C42.3658 41.2195 36.9914 41.5873 33.7475 41.6398C32.5855 41.6661 31.3266 41.6661 30.0193 41.6661C25.6133 41.6661 21.1105 41.5347 16.753 41.4034C15.7362 41.3771 14.671 41.3508 13.6542 41.3246C10.0229 41.2458 9.6356 40.878 9.6356 40.878C9.6356 40.8254 9.82927 40.5627 10.9429 40.0898C11.8628 39.722 13.0248 39.4068 13.7511 39.2492L16.6077 38.6449L13.5574 38.3822C13.0248 38.3297 12.4438 38.3034 11.766 38.3034C8.76409 38.3034 3.19609 38.7763 0.968887 40.0898C0.291043 40.4839 0.000536448 40.9042 0.000536448 41.3508V41.4034C0.000536448 41.6136 -0.0478799 42.0864 0.775216 42.5331C2.03407 43.2424 5.13278 43.689 10.1198 43.8729L12.0565 44.7661C12.2501 44.8449 16.5593 46.789 26.7269 46.789C29.8741 46.789 33.3117 46.6051 36.8946 46.211C43.0436 45.5542 54.567 43.7678 61.2001 42.1915L60.6191 41.3508C44.012 44.0305 31.6655 44.5822 24.2577 44.5822Z" fill="#24FF00"/>
<path d="M36.4104 36.228C33.7959 36.517 31.3266 36.6746 29.0994 36.6746C23.3377 36.6746 20.3842 35.7026 19.6096 35.4136L19.077 35.2034L15.3004 36.9898L15.9783 37.3314C16.1235 37.4102 20.1906 39.3805 29.6804 39.3805C34.1348 39.3805 39.0734 38.9602 44.3509 38.0932L47.3043 37.6203L36.6041 36.228H36.4104Z" fill="#24FF00"/>
<path d="M53.9375 52.9627C54.1796 51.3865 53.3565 50.8348 50.3546 50.9136C48.8537 50.9398 47.3527 51.15 45.7065 51.2814C45.5613 50.9398 45.3676 50.572 45.2224 50.1517C48.1274 49.5737 50.984 49.1797 53.9859 49.5737C56.1163 49.8365 57.472 50.5458 57.5204 51.728C57.6656 54.0136 57.5688 56.3254 57.5688 58.7161C56.4068 58.611 54.809 59.2415 54.5669 58.1644C52.7755 58.4009 51.0325 58.8212 49.1926 58.8737C46.6265 58.9788 44.9803 58.2432 44.4961 57.061C43.9635 55.7212 44.9319 54.3288 47.2075 53.8822C49.2894 53.4356 51.565 53.2517 53.9375 52.9627ZM54.0343 54.4076C52.4366 54.539 51.0325 54.5915 49.6768 54.7754C48.3211 54.9593 47.5948 55.7737 48.0306 56.4831C48.4663 57.2449 49.6768 57.5865 51.1293 57.4026C53.5986 57.061 54.0827 56.7458 54.0343 55.3271C54.0343 55.0907 54.0343 54.8543 54.0343 54.4076ZM26.2912 58.6898C25.4196 58.6898 24.645 58.6898 23.725 58.6898C23.5798 58.4797 23.4345 58.2432 23.2409 57.9805C23.0472 57.9805 22.9019 57.9805 22.8051 58.0068C21.3042 58.611 19.658 58.9526 17.7697 58.9C15.3972 58.8475 13.8963 58.2958 13.2669 57.2187C12.589 55.9839 13.3153 54.6178 15.3488 54.0661C16.8982 53.6458 18.738 53.4881 20.4811 53.2517C21.1589 53.1466 21.9336 53.1729 22.6599 53.1466C23.0472 51.4653 22.1273 50.8873 19.2222 50.9136C18.4475 50.9136 17.6244 50.9924 16.8498 51.0712C16.0751 51.15 15.3488 51.2551 14.5741 51.3602C13.7511 50.178 13.7026 50.0729 15.7362 49.8365C17.8181 49.6 20.0453 49.4687 22.1273 49.5475C24.7418 49.6526 26.0491 50.3356 26.1943 51.7542C26.4364 53.8297 26.3396 55.9051 26.3396 57.9805C26.4364 58.1907 26.3396 58.4271 26.2912 58.6898ZM22.7083 54.4076C21.2073 54.5127 19.8032 54.5653 18.4475 54.7492C17.0919 54.9331 16.4624 55.6949 16.8498 56.4568C17.1887 57.1398 18.3023 57.5602 19.658 57.3763C22.9504 56.9559 23.1924 56.6407 22.7083 54.4076ZM28.3247 49.6788C28.5184 49.6263 28.5668 49.6 28.6152 49.6C32.2465 49.5475 32.1981 49.5475 33.2148 51.439C34.0864 53.0678 35.0547 54.7229 35.9746 56.3517C36.1199 56.3517 36.2651 56.378 36.4104 56.378C37.4272 54.1449 38.4439 51.8856 39.4607 49.6263C40.4775 49.6263 41.6395 49.6263 43.1404 49.6263C42.2689 51.3865 41.5426 53.0941 40.6227 54.7492C39.9933 55.8526 39.1218 56.9034 38.4439 57.9805C38.0566 58.5848 37.4272 58.8212 36.3136 58.7161C36.1683 58.7161 35.9746 58.6898 35.8294 58.7161C34.0379 58.9263 33.2148 58.5059 32.7307 57.5339C31.375 54.9331 29.8256 52.3322 28.3247 49.6788ZM5.13275 62C4.55175 61.6322 4.01915 61.2644 3.34131 60.8178C6.77894 59.9509 7.02103 58.3483 6.97261 56.5881C6.87578 53.5144 6.97261 50.467 6.97261 47.4195C6.97261 47.1042 6.97261 46.789 6.97261 46.3949C8.27988 46.3949 9.4419 46.3949 10.7492 46.3949C10.7492 46.6314 10.7976 46.8415 10.7976 47.078C10.7976 50.4932 10.7976 53.8822 10.7976 57.2975C10.7976 59.7932 9.49032 60.8178 5.13275 62Z" fill="#24FF00"/>
</svg>
