<svg width="62" height="62" viewBox="0 0 62 62" fill="none" xmlns="http://www.w3.org/2000/svg">
<path d="M24.8727 9.56641H14.6766V36.6672C14.6766 43.3758 12.3758 45.2406 8.37969 45.2406C6.51484 45.2406 4.81953 44.9258 3.51172 44.4656L2.42188 52.4336C4.28672 53.0875 7.16875 53.475 9.42109 53.475C18.6242 53.475 24.8727 49.1641 24.8727 36.7641V9.56641ZM47.1297 8.54922C37.2484 8.54922 31 14.168 31 21.5789C31 27.9727 35.8195 31.9688 42.8188 34.5602C47.8805 36.3766 49.8906 37.975 49.8906 40.6148C49.8906 43.5211 47.5656 45.3859 43.2062 45.3859C39.1375 45.3859 35.4562 44.0297 32.9375 42.6734L31 50.7383C33.3734 52.0945 37.8297 53.4508 42.625 53.4508C54.2016 53.4508 59.5781 47.2508 59.5781 39.9609C59.5781 33.7609 56.1391 29.7648 48.7039 26.9313C43.2063 24.7273 40.8813 23.5164 40.8813 20.7313C40.8813 18.5273 42.8914 16.5414 47.0086 16.5414C51.0773 16.5414 53.8625 17.8977 55.4852 18.7453L57.9312 10.5836C55.3883 9.46954 51.9492 8.54922 47.1297 8.54922Z" fill="#24FF00"/>
</svg>
