<svg width="43" height="32" viewBox="0 0 43 32" fill="none" xmlns="http://www.w3.org/2000/svg">
<rect x="1" width="40" height="32" rx="4" fill="#A3A3A3"/>
<g clip-path="url(#clip0_18_78)">
<path d="M14.3244 12.9611C14.1952 13.0545 14.1311 13.1775 14.1296 13.3014C14.1281 13.4252 14.1907 13.5498 14.3163 13.6461L20.5918 18.4096C20.8443 18.6013 21.2585 18.6062 21.5154 18.4205L27.9032 13.8059C28.1602 13.6203 28.1638 13.3136 27.9113 13.1219C27.6588 12.9302 27.2446 12.9253 26.9876 13.111L21.0664 17.3876L15.248 12.9721C14.9955 12.7794 14.5827 12.7745 14.3244 12.9611Z" fill="#FEFEFE"/>
<path d="M40.2125 0.471444L2.32595 0.0232071C1.24553 0.0104246 0.358599 0.651154 0.349132 1.45128L0.0171805 29.509C0.00771417 30.3091 0.879241 30.9706 1.95966 30.9834L39.8462 31.4317C40.9266 31.4444 41.8135 30.8037 41.823 30.0036L42.1549 1.94589C42.1644 1.14576 41.2929 0.484227 40.2125 0.471444ZM39.8576 30.4641L1.97111 30.0159C1.61053 30.0116 1.32046 29.7905 1.32361 29.5244L1.65556 1.46674C1.65871 1.20067 1.95393 0.986448 2.3145 0.990714L40.201 1.43895C40.5616 1.44322 40.8517 1.66437 40.8485 1.93043L40.5166 29.9881C40.5134 30.2542 40.2182 30.4684 39.8576 30.4641Z" fill="#FEFEFE"/>
</g>
<defs>
<clipPath id="clip0_18_78">
<rect x="42.1721" y="0.494629" width="30.9624" height="41.8087" transform="rotate(90.6778 42.1721 0.494629)" fill="white"/>
</clipPath>
</defs>
</svg>
