<svg width="37" height="29" viewBox="0 0 37 29" fill="none" xmlns="http://www.w3.org/2000/svg">
<path d="M7.53572 16.6256C7.01215 16.1787 6.74151 15.5842 6.72783 14.9857C6.71432 14.3873 6.95795 13.7834 7.46054 13.318C7.96276 12.853 8.63159 12.6122 9.30481 12.6002C9.97839 12.5879 10.6574 12.8038 11.1814 13.251L15.7048 17.1199L24.7107 6.95128L25.0333 7.1701L24.7103 6.95031C24.736 6.92062 24.7652 6.89532 24.7977 6.87472C25.3335 6.46222 26.006 6.276 26.6633 6.3078V6.30715L26.6955 6.30974C27.3566 6.34867 28.0025 6.60983 28.4793 7.08283C28.9644 7.56378 29.1843 8.17467 29.1476 8.77176H29.1483L29.1454 8.80031C29.1023 9.37745 28.8186 9.94145 28.3043 10.3627L17.4964 22.0564L17.4971 22.0571C17.4768 22.0799 17.454 22.0996 17.4292 22.1168C16.9231 22.5117 16.2841 22.7054 15.6486 22.6957C15.0079 22.6858 14.3684 22.4692 13.871 22.0442L7.53572 16.6256Z" fill="#24FF00"/>
</svg>
