<svg width="60" height="52" viewBox="0 0 60 52" fill="none" xmlns="http://www.w3.org/2000/svg">
<path d="M34.7257 45.6846C33.5758 46.9464 33.5313 49.043 34.6265 50.3676C35.7217 51.6926 37.5413 51.7438 38.691 50.482L34.7257 45.6846ZM58.816 28.3987C59.966 27.1368 60.0104 25.0402 58.9152 23.7157C57.8201 22.3907 56.0004 22.3394 54.8507 23.6013L58.816 28.3987ZM54.8507 28.3987C56.0004 29.6605 57.8201 29.6093 58.9152 28.2843C60.0104 26.9597 59.966 24.8631 58.816 23.6013L54.8507 28.3987ZM38.691 1.51794C37.5413 0.256234 35.7217 0.307378 34.6265 1.63216C33.5313 2.95694 33.5758 5.05366 34.7257 6.31532L38.691 1.51794ZM56.8334 29.3125C58.4211 29.3125 59.7084 27.8293 59.7084 26C59.7084 24.1706 58.4211 22.6875 56.8334 22.6875V29.3125ZM3.16669 22.6875C1.57888 22.6875 0.291687 24.1706 0.291687 26C0.291687 27.8293 1.57888 29.3125 3.16669 29.3125V22.6875ZM38.691 50.482L58.816 28.3987L54.8507 23.6013L34.7257 45.6846L38.691 50.482ZM58.816 23.6013L38.691 1.51794L34.7257 6.31532L54.8507 28.3987L58.816 23.6013ZM56.8334 22.6875H3.16669V29.3125H56.8334V22.6875Z" fill="white"/>
</svg>
