<svg width="298" height="225" viewBox="0 0 298 225" fill="none" xmlns="http://www.w3.org/2000/svg">
<g clip-path="url(#clip0_12_115)">
<path fill-rule="evenodd" clip-rule="evenodd" d="M128.047 191.541C136.05 216.481 169.517 217.379 177.035 191.541C185.886 199.983 212.102 201.651 221.851 207.424C224.931 209.246 227.72 211.555 229.951 214.685C231.454 216.789 233.467 220.664 234.971 225H70.0863C71.6141 220.664 73.6027 216.789 75.1063 214.685C77.3374 211.555 80.1263 209.246 83.2062 207.424C92.9795 201.676 119.195 199.983 128.047 191.541ZM122.493 0H182.612C185.207 0 187.317 2.2323 187.317 4.97776V49.6493C187.317 52.3948 185.207 54.6271 182.612 54.6271H122.493C119.898 54.6271 117.789 52.3948 117.789 49.6493V4.97776C117.789 2.2323 119.898 0 122.493 0ZM184.528 13.9326H120.771V50.1368C120.771 50.5217 120.917 50.8553 121.16 51.1119C121.402 51.3685 121.717 51.5224 122.081 51.5224H183.219C183.582 51.5224 183.898 51.3685 184.14 51.1119C184.383 50.8553 184.528 50.5217 184.528 50.1368V13.9326ZM178.126 5.59357C179.411 5.59357 180.454 6.69689 180.454 8.05679C180.454 9.4167 179.411 10.52 178.126 10.52C176.84 10.52 175.798 9.4167 175.798 8.05679C175.798 6.69689 176.84 5.59357 178.126 5.59357ZM162.362 5.59357C163.648 5.59357 164.691 6.69689 164.691 8.05679C164.691 9.4167 163.648 10.52 162.362 10.52C161.077 10.52 160.034 9.4167 160.034 8.05679C160.034 6.69689 161.077 5.59357 162.362 5.59357ZM170.244 5.59357C171.529 5.59357 172.572 6.69689 172.572 8.05679C172.572 9.4167 171.529 10.52 170.244 10.52C168.959 10.52 167.916 9.4167 167.916 8.05679C167.916 6.69689 168.959 5.59357 170.244 5.59357ZM143.956 29.1995L136.292 32.2528L143.956 35.3319V42.4649L132.048 35.3319V29.1995L143.956 22.0664V29.1995ZM173.057 29.1995V35.3319L161.15 42.4649V35.3319L168.813 32.2528L161.15 29.1995V22.0407L173.057 29.1995ZM152.419 44.4663H147.351L153.608 18.6538H158.676L152.419 44.4663ZM290.749 142.764C290.846 142.764 290.943 142.764 291.04 142.79C291.646 141.661 292.204 140.455 292.737 139.198C292.762 139.172 292.762 139.146 292.786 139.146C293.538 137.222 294.144 135.246 294.508 133.194C294.799 131.603 295.017 129.961 295.066 128.293H285.947C285.777 133.194 284.395 138.017 281.824 142.764H290.749ZM289.173 145.843H280.006C277.217 150.128 273.458 154.336 268.777 158.493C269.505 158.39 270.257 158.262 270.96 158.108C272.924 157.698 274.816 157.082 276.659 156.235C278.502 155.388 280.248 154.413 281.849 153.259C283.449 152.13 284.929 150.847 286.311 149.384C287.329 148.281 288.324 147.101 289.173 145.843ZM260.944 158.493C256.239 154.336 252.48 150.128 249.716 145.843H240.549C241.422 147.101 242.392 148.281 243.459 149.41C244.841 150.872 246.296 152.155 247.921 153.284C249.522 154.413 251.244 155.414 253.111 156.261C253.135 156.286 253.159 156.286 253.159 156.312C254.978 157.107 256.846 157.749 258.786 158.134C259.489 158.262 260.216 158.365 260.944 158.493ZM238.633 142.764H247.873C245.302 138.017 243.92 133.168 243.75 128.293H234.631C234.704 129.986 234.898 131.603 235.189 133.194C235.577 135.272 236.159 137.273 236.959 139.223C237.445 140.455 238.002 141.635 238.633 142.764ZM234.631 125.214H243.798C244.138 120.416 245.641 115.592 248.333 110.742H238.633C238.027 111.871 237.469 113.052 236.959 114.309C236.935 114.335 236.935 114.36 236.911 114.36C236.159 116.285 235.553 118.26 235.189 120.313C234.874 121.904 234.68 123.52 234.631 125.214ZM240.524 107.663H250.201C252.965 103.455 256.603 99.2217 261.138 94.9624C260.314 95.065 259.537 95.1933 258.761 95.3729C256.797 95.7834 254.905 96.3992 253.062 97.246C251.219 98.0927 249.473 99.0677 247.873 100.222C246.272 101.351 244.793 102.634 243.41 104.097C242.368 105.2 241.397 106.38 240.524 107.663ZM268.535 94.9624C273.094 99.2217 276.732 103.455 279.472 107.663H289.148C288.275 106.406 287.305 105.226 286.238 104.097C284.856 102.634 283.401 101.351 281.776 100.222C280.175 99.0934 278.453 98.0927 276.586 97.246C276.562 97.2203 276.538 97.2203 276.538 97.1947C274.719 96.3992 272.851 95.7578 270.911 95.3729C270.135 95.2189 269.335 95.0907 268.535 94.9624ZM291.064 110.742H281.364C284.056 115.592 285.559 120.416 285.899 125.214H295.066C294.993 123.52 294.799 121.904 294.508 120.313C294.12 118.235 293.538 116.233 292.737 114.283C292.228 113.052 291.67 111.871 291.064 110.742ZM258.179 92.3452C260.338 91.8833 262.545 91.6524 264.848 91.6524C267.128 91.6524 269.335 91.8833 271.518 92.3452C273.652 92.7814 275.689 93.4485 277.702 94.3722C277.726 94.3722 277.75 94.3979 277.774 94.4235C279.763 95.3216 281.655 96.4249 283.425 97.6565C285.195 98.8881 286.82 100.325 288.324 101.916C289.827 103.507 291.161 105.226 292.349 107.099C293.538 108.972 294.556 110.973 295.405 113.077C296.278 115.233 296.909 117.439 297.345 119.697C297.782 121.981 298 124.316 298 126.753C298 129.165 297.782 131.5 297.345 133.809C296.933 136.067 296.302 138.223 295.429 140.352C295.429 140.378 295.405 140.404 295.381 140.429C294.532 142.559 293.489 144.535 292.325 146.408C291.161 148.281 289.803 150 288.299 151.591C286.796 153.182 285.171 154.593 283.401 155.85C281.63 157.107 279.739 158.185 277.75 159.083C275.713 160.007 273.627 160.674 271.493 161.136C269.335 161.598 267.128 161.829 264.824 161.829C262.545 161.829 260.338 161.598 258.155 161.136C256.021 160.7 253.984 160.032 251.971 159.109C251.947 159.109 251.923 159.083 251.898 159.057C249.91 158.159 248.018 157.056 246.248 155.824C244.477 154.593 242.853 153.156 241.349 151.565C239.845 149.974 238.512 148.255 237.323 146.382C236.135 144.509 235.116 142.508 234.268 140.404C233.395 138.248 232.764 136.042 232.327 133.784C231.891 131.5 231.673 129.165 231.673 126.728C231.673 124.316 231.891 121.981 232.327 119.672C232.74 117.414 233.37 115.258 234.243 113.129C234.243 113.103 234.268 113.077 234.292 113.052C235.141 110.922 236.183 108.946 237.348 107.073C238.512 105.2 239.87 103.481 241.373 101.89C242.877 100.299 244.502 98.8881 246.272 97.6309C248.042 96.3736 249.934 95.2959 251.923 94.3979C253.935 93.4998 256.021 92.8327 258.179 92.3452ZM266.304 96.9637V107.663H275.931C273.385 104.122 270.184 100.556 266.304 96.9637ZM266.304 110.742V125.214H282.988C282.6 120.467 280.927 115.643 277.944 110.742H266.304ZM266.304 128.293V142.764H278.453C281.339 137.966 282.867 133.142 283.037 128.293H266.304ZM266.304 145.843V156.671C270.426 153.105 273.797 149.487 276.416 145.843H266.304ZM263.393 156.646V145.818H253.281C255.876 149.461 259.246 153.079 263.393 156.646ZM263.393 142.764V128.293H246.636C246.806 133.142 248.358 137.966 251.219 142.764H263.393ZM263.393 125.214V110.742H251.729C248.746 115.643 247.072 120.467 246.709 125.214H263.393ZM263.393 107.663V96.9637C259.489 100.556 256.288 104.122 253.766 107.663H263.393ZM22.869 126.753L12.1257 110.255C14.0173 107.843 15.6663 105.277 17.0972 102.583C18.5765 99.7862 19.8133 96.8611 20.8804 93.8077L39.7964 95.7321L22.869 126.753ZM26.4097 129.011L43.4098 97.8361L72.7297 115.746L70.4015 120.005L47.0718 105.765C45.8107 104.995 44.1616 105.457 43.4341 106.791C42.7065 108.125 43.1431 109.87 44.4041 110.64L67.7339 124.88L65.5513 128.857L42.2215 114.617C40.9605 113.847 39.3114 114.309 38.5838 115.643C37.8563 116.977 38.2928 118.722 39.5539 119.492L62.8836 133.732L60.701 137.71L37.3713 123.469C36.1102 122.699 34.4611 123.161 33.7336 124.495C33.006 125.83 33.4426 127.574 34.7036 128.344L58.0334 142.585L55.7052 146.844L26.4097 129.011ZM8.43945 104.636L0 91.6781L14.478 93.1663C13.6535 95.3216 12.7319 97.3999 11.6891 99.3756C10.7433 101.223 9.65202 102.968 8.43945 104.636ZM42.1245 215.943C43.3613 218.868 42.1245 222.306 39.3356 223.614C36.571 224.923 33.3213 223.614 32.0845 220.664C29.0046 213.377 26.4824 205.807 24.6393 197.982C22.8205 190.31 21.6079 182.355 21.0501 174.222C20.8319 171.014 23.1115 168.218 26.1672 167.987C29.1986 167.756 31.842 170.168 32.0602 173.401C32.5695 180.842 33.6851 188.103 35.3341 195.133C37.0317 202.395 39.3356 209.323 42.1245 215.943ZM65.2603 76.9757C63.0049 79.1054 59.5369 78.9001 57.4998 76.5139C55.487 74.1276 55.681 70.4584 57.9364 68.3031C63.0776 63.4536 69.092 58.4759 75.3003 54.1909C80.8781 50.3421 86.6257 47.0322 92.1065 44.7742C94.9439 43.6196 98.1208 45.1078 99.2121 48.1098C100.303 51.1119 98.8968 54.4731 96.0594 55.6278C91.3304 57.5522 86.2619 60.5029 81.2661 63.9412C75.5428 67.9182 69.965 72.5111 65.2603 76.9757ZM207.834 52.3178C205.215 50.7013 204.341 47.1348 205.869 44.3637C207.397 41.5925 210.768 40.6688 213.387 42.2853C219.547 46.0828 225.392 50.4447 230.848 55.2429C236.353 60.0667 241.47 65.378 246.126 71.0486C248.115 73.4861 247.873 77.1553 245.569 79.2593C243.265 81.3633 239.797 81.1067 237.808 78.6692C233.516 73.4348 228.835 68.5854 223.84 64.1721C218.844 59.8101 213.484 55.833 207.834 52.3178ZM268.85 181.073C269.238 177.891 272.003 175.633 275.01 176.069C278.017 176.505 280.151 179.405 279.739 182.586C278.914 189.155 277.677 195.544 276.028 201.702C274.355 208.04 272.245 214.146 269.796 220.048C268.559 222.999 265.309 224.333 262.545 223.024C259.756 221.716 258.495 218.277 259.731 215.352C262.011 209.913 263.927 204.319 265.455 198.572C266.958 192.85 268.122 187 268.85 181.073ZM121.911 139.865C120.238 139.942 118.953 140.301 118.104 140.917C117.619 141.276 117.255 141.712 117.013 142.251C116.746 142.841 116.625 143.56 116.649 144.406C116.722 146.844 117.934 150.026 120.262 153.695L120.286 153.746L127.853 166.498C130.884 171.605 134.085 176.813 138.038 180.636C141.846 184.306 146.454 186.82 152.565 186.82C159.186 186.846 164.012 184.254 167.94 180.354C172.014 176.3 175.24 170.758 178.417 165.241L186.953 150.359C188.554 146.51 189.112 143.945 188.748 142.431C188.53 141.533 187.584 141.096 186.007 141.02C185.668 140.994 185.328 140.994 184.965 141.02C184.577 141.02 184.189 141.071 183.776 141.096C183.558 141.122 183.34 141.096 183.122 141.045C182.37 141.096 181.57 141.045 180.793 140.917L183.728 128.498C162.047 132.116 145.823 115.079 122.906 125.086L124.555 139.942C123.585 140.044 122.712 139.993 121.911 139.865ZM188.918 136.991C191.028 137.658 192.361 139.069 192.919 141.353C193.525 143.868 192.871 147.434 190.834 152.309C190.785 152.386 190.761 152.489 190.712 152.566L182.079 167.602C178.756 173.401 175.361 179.199 170.875 183.69C166.194 188.308 160.447 191.387 152.589 191.362C145.241 191.336 139.712 188.36 135.177 183.972C130.787 179.738 127.441 174.247 124.264 168.91L116.697 156.158C113.933 151.796 112.478 147.793 112.405 144.509C112.356 142.97 112.599 141.558 113.157 140.327C113.714 139.044 114.587 137.966 115.751 137.119C116.309 136.735 116.916 136.401 117.595 136.119C117.11 129.217 116.916 121.776 117.231 114.489C117.401 112.769 117.716 111.025 118.177 109.306C120.117 101.993 124.967 98.6315 130.981 94.6031C134.304 92.3708 137.917 90.6774 141.725 89.5484C144.125 88.83 139.688 80.6962 142.161 80.414C154.19 79.1054 173.639 90.7287 182.055 100.325C186.25 105.149 188.893 108.972 189.475 117.414L188.918 136.991Z" fill="black"/>
</g>
<defs>
<clipPath id="clip0_12_115">
<rect width="298" height="225" fill="white"/>
</clipPath>
</defs>
</svg>
