<svg width="86" height="73" viewBox="0 0 86 73" fill="none" xmlns="http://www.w3.org/2000/svg">
<g clip-path="url(#clip0_12_148)">
<path d="M83.1333 5.47498H14.3333C12.7524 5.47498 11.4666 6.56627 11.4666 7.90836V10.3417H8.6C7.01908 10.3417 5.73328 11.433 5.73328 12.7751V15.2085H2.86672C1.28563 15.2084 0 16.2996 0 17.6416V65.0916C0 66.4335 1.28563 67.525 2.86672 67.525H71.6667C73.2476 67.525 74.5334 66.4337 74.5334 65.0916V62.6582H77.4C78.9809 62.6582 80.2667 61.5669 80.2667 60.2248V57.7915H83.1334C84.7144 57.7915 86.0002 56.7002 86.0002 55.3581V7.90807C86 6.56627 84.7144 5.47498 83.1333 5.47498ZM2.86672 17.6416H71.6667L71.6682 44.822L64.1461 37.5244C63.6 36.9939 62.5336 36.9939 61.9875 37.5244L52.906 46.3343L28.185 27.6828C27.6418 27.2716 26.8248 27.2716 26.2816 27.6828L2.86672 45.3499V17.6416ZM71.6696 61.4526V65.0916H2.86672V48.6034L27.2334 30.2184L52.0817 48.966C52.3656 49.1813 52.7439 49.2787 53.1238 49.2714C53.5064 49.2507 53.862 49.1023 54.1128 48.8578L63.0669 40.1732L71.6684 48.5183L71.6697 61.432C71.6697 61.4345 71.6669 61.4382 71.6669 61.4417C71.6669 61.4453 71.6696 61.449 71.6696 61.4526ZM77.4 60.225H74.5333V17.6416C74.5333 16.2996 73.2476 15.2082 71.6665 15.2082H8.6V12.775H77.4V60.225ZM83.1333 55.3584H80.2666V12.775C80.2666 11.433 78.9809 10.3416 77.3998 10.3416H14.3333V7.90836H83.1333V55.3584Z" fill="white"/>
<path d="M51.6 24.9417C48.438 24.9417 45.8667 27.1244 45.8667 29.8083C45.8667 32.4922 48.438 34.675 51.6 34.675C54.762 34.675 57.3333 32.4923 57.3333 29.8084C57.3333 27.1245 54.762 24.9417 51.6 24.9417ZM51.6 32.2416C50.0191 32.2416 48.7333 31.1504 48.7333 29.8083C48.7333 28.4663 50.0189 27.3749 51.6 27.3749C53.1811 27.3749 54.4667 28.4662 54.4667 29.8083C54.4667 31.1504 53.1809 32.2416 51.6 32.2416Z" fill="white"/>
</g>
<defs>
<clipPath id="clip0_12_148">
<rect width="86" height="73" fill="white"/>
</clipPath>
</defs>
</svg>
